:SAMPLES-PER-SECOND 30
:FULLY-SPECIFIED
:DEGREES
124
root  60.2154 38.1341 2.19688 -58.1542 85.3964 -55.004
RightUpLeg  16.8712 3.16592 7.74809
RightLeg  12.1431 11.21 -1.12505
RightFoot  -13.0571 0.000240407 -1.79958
RightToes  -2.32832e-010 -1.59028e-015 9.93923e-017
Spine  -0.598001 3.58642 13.0066
Spine1  12.2266 6.19954 -9.00845
HEad  -16.3904 -2.85883 5.09137
LeftShoulder1  9.93923e-017 0 1.22299e-017
LeftArm  -0.165214 59.416 -51.8275
LeftForeArm  5.33004 -1.67568 -4.90953
LeftHand  1.06625 7.72509 -3.79184
RightShoulder  1.98785e-016 -4.96962e-017 1.55301e-017
RightArm  -13.0199 5.90657 76.1888
RightForeArm  177.313 35.2447 -30.2378
RightHand  2.54525 10.3056 23.8764
LeftUpLeg  -26.2106 -1.76587 2.35114
LeftLeg  -0.104135 -7.25068 0.783786
LeftFoot  -0.765825 0.628667 -5.69079
LeftToes  1.49248e-009 -4.82331e-011 8.60243e-011
125
root  62.1708 37.7484 1.96876 -46.7217 86.014 -43.9359
RightUpLeg  18.4326 4.07313 6.01312
RightLeg  14.6751 10.8961 -0.451625
RightFoot  -12.8982 -0.00133676 0.5867
RightToes  -2.32832e-010 -1.59028e-015 9.93923e-017
Spine  -1.30234 3.813 12.1429
Spine1  12.8759 6.58985 -9.72202
HEad  -17.0035 -3.07949 5.70977
LeftShoulder1  9.93923e-017 0 1.22299e-017
LeftArm  -3.28914 58.4518 -52.6917
LeftForeArm  4.47759 -1.38321 -4.3479
LeftHand  1.10746 8.01325 -2.50323
RightShoulder  1.98785e-016 -4.96962e-017 1.55301e-017
RightArm  -15.0989 4.20587 76.4177
RightForeArm  176.54 36.0184 -30.8923
RightHand  2.64088 10.3418 24.4949
LeftUpLeg  -27.5106 -3.89203 1.7543
LeftLeg  5.63353 -5.08438 1.54364
LeftFoot  1.7057 0.668638 -4.99968
LeftToes  1.49248e-009 -4.82331e-011 8.60243e-011
126
root  64.2406 37.4285 1.72911 -20.4224 86.5135 -17.8622
RightUpLeg  18.935 4.08463 2.61911
RightLeg  18.997 11.5344 0.996056
RightFoot  -10.7089 -0.0887224 4.25375
RightToes  -2.32832e-010 -1.59028e-015 9.93923e-017
Spine  -1.51305 4.09006 10.3526
Spine1  12.7137 6.94004 -10.3238
HEad  -17.127 -3.53508 6.60452
LeftShoulder1  9.93923e-017 0 1.22299e-017
LeftArm  -5.76601 57.3958 -54.701
LeftForeArm  1.92003 -1.32494 -4.26761
LeftHand  1.11168 8.00403 -1.82081
RightShoulder  1.98785e-016 -4.96962e-017 1.55301e-017
RightArm  -16.8318 0.190455 77.4169
RightForeArm  175.93 36.4966 -31.3122
RightHand  2.6641 10.104 24.8533
LeftUpLeg  -28.0753 -8.03951 1.68316
LeftLeg  11.6326 -0.338116 2.21599
LeftFoot  6.6146 0.704361 -3.87884
LeftToes  1.49248e-009 -4.82331e-011 8.60243e-011
127
root  66.2069 37.2067 1.49668 11.1429 86.3111 13.7991
RightUpLeg  17.5913 1.91576 -1.93301
RightLeg  26.1955 14.008 2.4883
RightFoot  -3.47224 -0.577899 6.86518
RightToes  -2.32832e-010 -1.59028e-015 9.93923e-017
Spine  -0.517301 4.0295 8.17094
Spine1  11.8389 7.01499 -11.1704
HEad  -17.3436 -3.9276 7.22543
LeftShoulder1  9.93923e-017 0 1.22299e-017
LeftArm  -8.29429 55.5791 -58.048
LeftForeArm  -1.11521 -1.38751 -4.57793
LeftHand  1.09196 7.85715 -2.02078
RightShoulder  1.98785e-016 -4.96962e-017 1.55301e-017
RightArm  -18.196 -5.16848 79.2103
RightForeArm  175.971 35.9942 -30.9075
RightHand  2.67147 9.87869 25.1007
LeftUpLeg  -28.2093 -9.96014 -0.00445992
LeftLeg  17.3472 1.28575 3.22298
LeftFoot  8.79806 0.449018 -2.15644
LeftToes  1.49248e-009 -4.82331e-011 8.60243e-011
128
root  67.91 37.0195 1.28822 33.3047 85.4972 36.1972
RightUpLeg  13.7624 1.35242 -5.24098
RightLeg  36.2404 14.2521 3.505
RightFoot  8.98333 -1.44572 7.41046
RightToes  -2.32832e-010 -1.59028e-015 9.93923e-017
Spine  1.3048 3.65336 5.6975
Spine1  10.9881 6.55023 -12.0167
HEad  -17.8772 -3.68698 6.99596
LeftShoulder1  9.93923e-017 0 1.22299e-017
LeftArm  -11.5292 52.3039 -62.8486
LeftForeArm  -2.81976 -1.50228 -4.93071
LeftHand  1.08742 7.87664 -3.06489
RightShoulder  1.98785e-016 -4.96962e-017 1.55301e-017
RightArm  -19.0911 -10.5735 81.6885
RightForeArm  177.612 33.8105 -29.1262
RightHand  2.59875 9.60374 24.8347
LeftUpLeg  -28.0062 -9.55526 -2.84659
LeftLeg  22.7001 0.11706 4.24386
LeftFoot  6.49695 0.0263267 -0.0427353
LeftToes  1.49248e-009 -4.82331e-011 8.60243e-011
129
root  69.4862 36.8959 1.11944 43.7589 84.6279 46.8522
RightUpLeg  8.23593 1.92404 -6.93023
RightLeg  46.3264 12.4525 2.62497
RightFoot  20.7248 -2.66058 8.74662
RightToes  -2.32832e-010 -1.59028e-015 9.93923e-017
Spine  2.72644 3.09255 3.06289
Spine1  10.7039 5.52437 -12.0722
HEad  -18.231 -2.60247 6.00832
LeftShoulder1  9.93923e-017 0 1.22299e-017
LeftArm  -15.1027 47.4039 -68.1719
LeftForeArm  -2.06665 -1.61145 -5.11817
LeftHand  1.0856 7.94412 -4.38166
RightShoulder  1.98785e-016 -4.96962e-017 1.55301e-017
RightArm  -19.0502 -15.3787 84.4756
RightForeArm  -179.075 29.6878 -26.0061
RightHand  2.42396 9.16204 23.9655
LeftUpLeg  -27.1898 -8.96624 -5.103
LeftLeg  27.0819 -0.790598 5.01397
LeftFoot  1.96326 -0.158763 1.21662
LeftToes  1.49248e-009 -4.82331e-011 8.60243e-011
130
root  71.1406 37.0475 1.00427 48.4909 84.0642 51.7719
RightUpLeg  2.34946 2.71884 -7.38162
RightLeg  54.1453 10.0409 -0.434217
RightFoot  25.9309 -3.6396 10.2572
RightToes  -2.32832e-010 -1.59028e-015 9.93923e-017
Spine  3.1954 2.37004 0.454993
Spine1  10.8736 4.19986 -11.1967
HEad  -17.8572 -1.03348 4.90674
LeftShoulder1  9.93923e-017 0 1.22299e-017
LeftArm  -17.5184 41.4183 -72.7069
LeftForeArm  -0.0212497 -1.75806 -5.26316
LeftHand  1.04566 7.57639 -4.94603
RightShoulder  1.98785e-016 -4.96962e-017 1.55301e-017
RightArm  -17.4011 -19.8858 86.9748
RightForeArm  -175.759 23.7552 -22.1267
RightHand  2.2712 8.81022 23.135
LeftUpLeg  -24.795 -8.72994 -6.57909
LeftLeg  28.8086 -0.966759 5.41156
LeftFoot  -1.68503 -0.127091 1.18705
LeftToes  1.49248e-009 -4.82331e-011 8.60243e-011
131
root  72.8648 37.4433 0.925076 50.4401 84.2023 53.9339
RightUpLeg  -3.02127 3.12826 -6.72288
RightLeg  59.0668 9.085 -2.48983
RightFoot  23.8002 -3.14197 9.41075
RightToes  -2.32832e-010 -1.59028e-015 9.93923e-017
Spine  3.01738 1.56935 -1.40516
Spine1  10.975 2.8078 -9.8338
HEad  -16.6826 0.482907 4.05389
LeftShoulder1  9.93923e-017 0 1.22299e-017
LeftArm  -17.4429 35.3824 -76.0473
LeftForeArm  0.206143 -2.41756 -5.51677
LeftHand  0.970371 6.82224 -4.27995
RightShoulder  1.98785e-016 -4.96962e-017 1.55301e-017
RightArm  -17.361 -24.782 88.4711
RightForeArm  -169.984 17.4591 -16.8771
RightHand  2.19169 9.06398 22.3458
LeftUpLeg  -21.1823 -9.11835 -7.16944
LeftLeg  28.3059 -0.619713 5.47859
LeftFoot  -3.9908 -0.0820463 0.851531
LeftToes  1.49248e-009 -4.82331e-011 8.60243e-011
132
root  74.5999 37.8831 0.867043 52.5306 85.168 56.1878
RightUpLeg  -7.76524 3.14018 -5.18895
RightLeg  60.9607 9.37634 -2.1814
RightFoot  18.0198 -1.9968 7.174
RightToes  -2.32832e-010 -1.59028e-015 9.93923e-017
Spine  2.5995 0.694414 -2.51881
Spine1  10.7819 1.31584 -8.18205
HEad  -14.9638 1.64145 3.17887
LeftShoulder1  9.93923e-017 0 1.22299e-017
LeftArm  -13.3494 30.1087 -78.5675
LeftForeArm  -3.77091 -7.95184 -4.21158
LeftHand  0.901256 6.25162 -2.97031
RightShoulder  1.98785e-016 -4.96962e-017 1.55301e-017
RightArm  -21.2163 -30.4365 88.5744
RightForeArm  -159.23 11.8731 -11.3897
RightHand  2.06384 9.83773 20.8896
LeftUpLeg  -17.1619 -9.96777 -7.06661
LeftLeg  26.877 -0.198629 5.30483
LeftFoot  -5.97122 -0.0727598 0.848135
LeftToes  1.49248e-009 -4.82331e-011 8.60243e-011
